<?xml version="1.0" encoding="utf-8"?>
<!-- Generator: Adobe Illustrator 22.1.0, SVG Export Plug-In . SVG Version: 6.00 Build 0)  -->
<svg version="1.1" id="Layer_1" xmlns="http://www.w3.org/2000/svg" xmlns:xlink="http://www.w3.org/1999/xlink" x="0px" y="0px"
	 viewBox="0 0 266 59.7" style="enable-background:new 0 0 266 59.7;" xml:space="preserve">
<style type="text/css">
	.st0{fill:#FFFFFF;}
</style>
<g>
	<path class="st0" d="M124.9,9.4c2.7-0.1,4.8-2.1,4.7-4.7c0-2.7-2.1-4.7-4.7-4.7c-2.6,0-4.8,2.2-4.8,4.7
		C120.2,7.2,122.5,9.5,124.9,9.4z M113.9,4.2H91.2c-1.1,0-1.6,0.5-1.6,1.6v36.7c0,1.1,0.5,1.6,1.6,1.6h6.3c1.1,0,1.6-0.5,1.6-1.6
		V28.8h14.1c1.1,0,1.6-0.6,1.6-1.6v-4.8c0-1.1-0.6-1.6-1.6-1.6H99.1v-8.5h14.7c1.1,0,1.6-0.5,1.6-1.6V5.8
		C115.5,4.7,115,4.2,113.9,4.2z M128,14h-6.2c-1,0-1.5,0.5-1.5,1.5v27c0,1.1,0.5,1.6,1.5,1.6h6.2c1.1,0,1.5-0.5,1.5-1.6v-27
		C129.6,14.5,129.1,14,128,14z M188,13.3c-5,0-7.8,2.3-9.2,4.5l-0.5-2.5c-0.1-0.7-0.5-1.2-1.6-1.2h-5.5c-1.1,0-1.5,0.5-1.5,1.5v27
		c0,1.1,0.5,1.6,1.5,1.6h6.1c1.1,0,1.6-0.5,1.6-1.6V27.1c0-3.6,1.8-6,5.4-6c3.3,0,4.5,1.9,4.5,5.3v16.2c0,1.1,0.5,1.6,1.6,1.6h6.1
		c1,0,1.5-0.5,1.5-1.6v-18C198,17.5,195.1,13.3,188,13.3z M264.3,4.2h-6.4c-1.1,0-1.6,0.5-1.6,1.6v36.7c0,1.1,0.5,1.6,1.6,1.6h6.4
		c1.1,0,1.7-0.5,1.7-1.6V5.8C266,4.7,265.5,4.2,264.3,4.2z M238.6,5.7c-0.3-1-0.7-1.5-2-1.5h-8c-1.2,0-1.6,0.5-2,1.5l-12.6,36.5
		c-0.4,1.1,0.2,1.9,1.2,1.9h6.8c1.1,0,1.6-0.5,1.9-1.5l2-6.1h13.1l2.1,6.1c0.3,1,0.8,1.5,2,1.5h6.7c1.1,0,1.6-0.8,1.2-1.9L238.6,5.7
		z M227.9,28.4l4.8-14.7h0.1l4.6,14.7H227.9z M153.8,13.3c-5,0-7.8,2.3-9.2,4.5l-0.5-2.5c-0.1-0.7-0.5-1.2-1.6-1.2H137
		c-1.1,0-1.5,0.5-1.5,1.5v27c0,1.1,0.5,1.6,1.5,1.6h6.1c1.1,0,1.6-0.5,1.6-1.6V27.1c0-3.6,1.8-6,5.4-6c3.3,0,4.5,1.9,4.5,5.3v16.2
		c0,1.1,0.5,1.6,1.6,1.6h6.1c1,0,1.5-0.5,1.5-1.6v-18C163.8,17.5,160.9,13.3,153.8,13.3z"/>
	<path class="st0" d="M71.2,33c-3,0-5.5,2.5-5.5,5.5c0,1,0.3,1.9,0.7,2.8l-2.3,2.3h-4.5V20.3h6.3c0.6,2.3,2.8,4.1,5.3,4.1
		c3,0,5.5-2.5,5.5-5.5s-2.5-5.5-5.5-5.5c-2.5,0-4.6,1.7-5.3,4h-6.3V5.6c0-0.1,0-0.2,0-0.3c0,0,0-0.1,0-0.1c0,0,0-0.1,0-0.1
		c0-0.1-0.1-0.1-0.1-0.1c0,0,0-0.1-0.1-0.1c-0.1-0.2-0.2-0.3-0.4-0.4c0,0-0.1,0-0.1-0.1c0,0-0.1-0.1-0.1-0.1c0,0-0.1,0-0.1,0
		c0,0-0.1,0-0.1,0c-0.1,0-0.2,0-0.3,0H18.7c-0.8,0-1.5,0.7-1.5,1.5v5.1h-5.1c-0.4,0-0.8,0.2-1,0.4L8.2,14c-0.8-0.4-1.7-0.7-2.7-0.7
		c-3,0-5.5,2.5-5.5,5.5s2.5,5.5,5.5,5.5c3,0,5.5-2.5,5.5-5.5c0-1-0.3-1.9-0.7-2.7l2.4-2.4h4.5V37h-6.4c-0.6-2.3-2.8-4-5.3-4
		c-3,0-5.5,2.5-5.5,5.5c0,3,2.5,5.5,5.5,5.5c2.5,0,4.6-1.7,5.3-4h6.4v5.1c0,0.8,0.7,1.5,1.5,1.5h25.7l12.7,12.7
		c0.3,0.3,0.7,0.4,1,0.4c0.2,0,0.4,0,0.6-0.1c0.6-0.2,0.9-0.8,0.9-1.4V46.5h5.1c0.4,0,0.8-0.2,1-0.4l2.8-2.8
		c0.8,0.4,1.7,0.7,2.7,0.7c3,0,5.5-2.5,5.5-5.5C76.7,35.4,74.3,33,71.2,33z M71.2,16.2c1.4,0,2.5,1.1,2.5,2.5c0,1.4-1.1,2.5-2.5,2.5
		s-2.5-1.1-2.5-2.5C68.7,17.4,69.8,16.2,71.2,16.2z M5.5,21.3c-1.4,0-2.5-1.1-2.5-2.5c0-1.4,1.1-2.5,2.5-2.5s2.5,1.1,2.5,2.5
		C8.1,20.2,6.9,21.3,5.5,21.3z M5.5,41C4.1,41,3,39.9,3,38.5c0-1.4,1.1-2.5,2.5-2.5s2.5,1.1,2.5,2.5C8.1,39.9,6.9,41,5.5,41z
		 M20.2,7.1h34.4l-3.6,3.6H20.2V7.1z M20.2,43.6V40h17.6l3.6,3.6H20.2z M56.6,54.6l-8.1-8.1h8.1V54.6z M56.6,43.6h-11l-6.1-6.1
		c-0.3-0.3-0.7-0.4-1-0.4H20.2v-3.6h24.2l6.1,6.1c0.3,0.3,0.7,0.4,1,0.4h5.1V43.6z M56.6,37h-4.5L46,30.9c-0.3-0.3-0.7-0.4-1-0.4
		h-9.6l3.6-3.6h17.6V37z M56.6,23.9H38.4c-0.4,0-0.8,0.2-1,0.4l-6.1,6.1h-11v-3.6h5.1c0.4,0,0.8-0.2,1-0.4l6.1-6.1h24.2V23.9z
		 M56.6,17.3H31.8c-0.4,0-0.8,0.2-1,0.4l-6.1,6.1h-4.5V13.7h31.4c0.4,0,0.8-0.2,1-0.4l4-4V17.3z M71.2,41c-1.4,0-2.5-1.1-2.5-2.5
		c0-1.4,1.1-2.5,2.5-2.5s2.5,1.1,2.5,2.5C73.8,39.9,72.6,41,71.2,41z"/>
</g>
</svg>
